<svg xmlns="http://www.w3.org/2000/svg" width="1200" height="900" viewBox="0 0 1200 900" role="img" aria-labelledby="t">
  <title id="t">Briquet torche double flamme — planche de démonstration</title>
  <rect width="1200" height="900" fill="#f3eee4"/>
  <rect x="24" y="24" width="1152" height="852" fill="none" stroke="#9c948a" stroke-width="2"/>
  <g fill="none" stroke="#181513" stroke-width="4" stroke-linejoin="round" stroke-linecap="round">
    <rect x="510" y="300" width="180" height="400" rx="26" fill="#ede6d8"/>
    <rect x="530" y="330" width="140" height="240" rx="10" fill="#9c948a" opacity="0.35"/>
    <rect x="560" y="240" width="80" height="60" rx="8" fill="#7a5c43"/>
    <rect x="690" y="330" width="34" height="90" rx="10" fill="#181513"/>
    <circle cx="580" cy="240" r="10" fill="#f3eee4"/>
    <circle cx="620" cy="240" r="10" fill="#f3eee4"/>
    <path d="M 580 230 q -22 -50 0 -90 q 22 40 0 90 Z" fill="#c9a227" stroke="#8c4f2e" stroke-width="3"/>
    <path d="M 620 230 q -22 -50 0 -90 q 22 40 0 90 Z" fill="#c9a227" stroke="#8c4f2e" stroke-width="3"/>
    <line x1="600" y1="620" x2="600" y2="660" stroke="#9c948a" stroke-width="2"/>
    <circle cx="600" cy="640" r="18" stroke="#9c948a" stroke-width="2"/>
  </g>
  <g fill="none" stroke="#9c948a" stroke-width="2">
    <line x1="760" y1="300" x2="760" y2="700"/><line x1="745" y1="300" x2="775" y2="300"/><line x1="745" y1="700" x2="775" y2="700"/>
    <line x1="480" y1="640" x2="420" y2="640"/><circle cx="480" cy="640" r="5" fill="#9c948a"/>
  </g>
  <g font-family="Georgia, 'Times New Roman', serif" fill="#181513" font-size="28">
    <text x="780" y="508">70 mm</text>
    <text x="410" y="648" text-anchor="end">hublot de niveau</text>
    <text x="600" y="120" text-anchor="middle" fill="#9c948a" font-size="24">deux buses, flamme réglable au dos</text>
  </g>
  <rect x="24" y="800" width="1152" height="76" fill="#ede6d8"/>
  <text x="48" y="847" font-family="Georgia, 'Times New Roman', serif" font-size="26" fill="#181513">Briquet torche — double flamme · 70 × 32 mm · butane, réservoir 6 ml · pare-vent</text>
</svg>
